<?xml version="1.0" encoding="utf-8" standalone="no"?>
<!DOCTYPE svg PUBLIC "-//W3C//DTD SVG 1.1//EN"
  "http://www.w3.org/Graphics/SVG/1.1/DTD/svg11.dtd">
<svg height="288pt" version="1.1" viewBox="0 0 432 288" width="432pt" xmlns="http://www.w3.org/2000/svg" xmlns:xlink="http://www.w3.org/1999/xlink">
 <metadata>
  <rdf:RDF xmlns:cc="http://creativecommons.org/ns#" xmlns:dc="http://purl.org/dc/elements/1.1/" xmlns:rdf="http://www.w3.org/1999/02/22-rdf-syntax-ns#">
   <cc:Work>
    <dc:type rdf:resource="http://purl.org/dc/dcmitype/StillImage"/>
    <dc:date>2021-07-21T19:07:06.997759</dc:date>
    <dc:format>image/svg+xml</dc:format>
    <dc:creator>
     <cc:Agent>
      <dc:title>Matplotlib v3.4.2, https://matplotlib.org/</dc:title>
     </cc:Agent>
    </dc:creator>
   </cc:Work>
  </rdf:RDF>
 </metadata>
 <defs>
  <style type="text/css">*{stroke-linecap:butt;stroke-linejoin:round;}</style>
 </defs>
 <g id="figure_1">
  <g id="patch_1">
   <path d="M 0 288 
L 432 288 
L 432 0 
L 0 0 
z
" style="fill:none;"/>
  </g>
  <g id="axes_1">
   <g id="patch_2">
    <path d="M 54 252 
L 388.8 252 
L 388.8 34.56 
L 54 34.56 
z
" style="fill:#ffffff;"/>
   </g>
   <g id="PathCollection_1">
    <defs>
     <path d="M 0 3 
C 0.795609 3 1.55874 2.683901 2.12132 2.12132 
C 2.683901 1.55874 3 0.795609 3 0 
C 3 -0.795609 2.683901 -1.55874 2.12132 -2.12132 
C 1.55874 -2.683901 0.795609 -3 0 -3 
C -0.795609 -3 -1.55874 -2.683901 -2.12132 -2.12132 
C -2.683901 -1.55874 -3 -0.795609 -3 0 
C -3 0.795609 -2.683901 1.55874 -2.12132 2.12132 
C -1.55874 2.683901 -0.795609 3 0 3 
z
" id="mc9f396164a" style="stroke:#ff0000;"/>
    </defs>
    <g clip-path="url(#p1235a3229e)">
     <use style="fill:#ff0000;stroke:#ff0000;" x="354.559037" xlink:href="#mc9f396164a" y="227.339025"/>
     <use style="fill:#ff0000;stroke:#ff0000;" x="142.591558" xlink:href="#mc9f396164a" y="242.002675"/>
     <use style="fill:#ff0000;stroke:#ff0000;" x="137.156494" xlink:href="#mc9f396164a" y="242.082278"/>
     <use style="fill:#ff0000;stroke:#ff0000;" x="123.568831" xlink:href="#mc9f396164a" y="220.522098"/>
     <use style="fill:#ff0000;stroke:#ff0000;" x="134.438961" xlink:href="#mc9f396164a" y="234.980812"/>
     <use style="fill:#ff0000;stroke:#ff0000;" x="232.27013" xlink:href="#mc9f396164a" y="241.999869"/>
     <use style="fill:#ff0000;stroke:#ff0000;" x="139.874026" xlink:href="#mc9f396164a" y="222.656381"/>
     <use style="fill:#ff0000;stroke:#ff0000;" x="101.828571" xlink:href="#mc9f396164a" y="228.06773"/>
     <use style="fill:#ff0000;stroke:#ff0000;" x="150.744156" xlink:href="#mc9f396164a" y="241.32033"/>
     <use style="fill:#ff0000;stroke:#ff0000;" x="69.218182" xlink:href="#mc9f396164a" y="241.916058"/>
     <use style="fill:#ff0000;stroke:#ff0000;" x="107.263636" xlink:href="#mc9f396164a" y="231.563967"/>
     <use style="fill:#ff0000;stroke:#ff0000;" x="112.698701" xlink:href="#mc9f396164a" y="178.468564"/>
     <use style="fill:#ff0000;stroke:#ff0000;" x="164.331818" xlink:href="#mc9f396164a" y="229.854002"/>
     <use style="fill:#ff0000;stroke:#ff0000;" x="107.263636" xlink:href="#mc9f396164a" y="241.9796"/>
     <use style="fill:#ff0000;stroke:#ff0000;" x="80.088312" xlink:href="#mc9f396164a" y="131.77103"/>
     <use style="fill:#ff0000;stroke:#ff0000;" x="373.581818" xlink:href="#mc9f396164a" y="240.564834"/>
     <use style="fill:#ff0000;stroke:#ff0000;" x="69.218182" xlink:href="#mc9f396164a" y="231.739866"/>
    </g>
   </g>
   <g id="PathCollection_2">
    <defs>
     <path d="M 0 3 
C 0.795609 3 1.55874 2.683901 2.12132 2.12132 
C 2.683901 1.55874 3 0.795609 3 0 
C 3 -0.795609 2.683901 -1.55874 2.12132 -2.12132 
C 1.55874 -2.683901 0.795609 -3 0 -3 
C -0.795609 -3 -1.55874 -2.683901 -2.12132 -2.12132 
C -2.683901 -1.55874 -3 -0.795609 -3 0 
C -3 0.795609 -2.683901 1.55874 -2.12132 2.12132 
C -1.55874 2.683901 -0.795609 3 0 3 
z
" id="mf1cb0b008f" style="stroke:#0000ff;"/>
    </defs>
    <g clip-path="url(#p1235a3229e)">
     <use style="fill:#0000ff;stroke:#0000ff;" x="296.132143" xlink:href="#mf1cb0b008f" y="242.105703"/>
     <use style="fill:#0000ff;stroke:#0000ff;" x="69.218182" xlink:href="#mf1cb0b008f" y="181.482903"/>
     <use style="fill:#0000ff;stroke:#0000ff;" x="134.438961" xlink:href="#mf1cb0b008f" y="55.535582"/>
     <use style="fill:#0000ff;stroke:#0000ff;" x="90.958442" xlink:href="#mf1cb0b008f" y="242.111524"/>
     <use style="fill:#0000ff;stroke:#0000ff;" x="69.218182" xlink:href="#mf1cb0b008f" y="242.055066"/>
     <use style="fill:#0000ff;stroke:#0000ff;" x="107.263636" xlink:href="#mf1cb0b008f" y="242.076667"/>
     <use style="fill:#0000ff;stroke:#0000ff;" x="82.805844" xlink:href="#mf1cb0b008f" y="212.146487"/>
     <use style="fill:#0000ff;stroke:#0000ff;" x="69.218182" xlink:href="#mf1cb0b008f" y="232.44725"/>
     <use style="fill:#0000ff;stroke:#0000ff;" x="123.568831" xlink:href="#mf1cb0b008f" y="212.260667"/>
     <use style="fill:#0000ff;stroke:#0000ff;" x="115.416234" xlink:href="#mf1cb0b008f" y="242.097287"/>
     <use style="fill:#0000ff;stroke:#0000ff;" x="96.393506" xlink:href="#mf1cb0b008f" y="242.031149"/>
     <use style="fill:#0000ff;stroke:#0000ff;" x="109.981169" xlink:href="#mf1cb0b008f" y="231.550081"/>
     <use style="fill:#0000ff;stroke:#0000ff;" x="118.133766" xlink:href="#mf1cb0b008f" y="214.022182"/>
     <use style="fill:#0000ff;stroke:#0000ff;" x="85.523377" xlink:href="#mf1cb0b008f" y="242.078491"/>
     <use style="fill:#0000ff;stroke:#0000ff;" x="112.698701" xlink:href="#mf1cb0b008f" y="242.081717"/>
     <use style="fill:#0000ff;stroke:#0000ff;" x="86.882143" xlink:href="#mf1cb0b008f" y="242.066357"/>
     <use style="fill:#0000ff;stroke:#0000ff;" x="101.828571" xlink:href="#mf1cb0b008f" y="240.3242"/>
     <use style="fill:#0000ff;stroke:#0000ff;" x="112.698701" xlink:href="#mf1cb0b008f" y="241.591612"/>
     <use style="fill:#0000ff;stroke:#0000ff;" x="92.317208" xlink:href="#mf1cb0b008f" y="242.038864"/>
     <use style="fill:#0000ff;stroke:#0000ff;" x="101.828571" xlink:href="#mf1cb0b008f" y="242.08319"/>
     <use style="fill:#0000ff;stroke:#0000ff;" x="123.568831" xlink:href="#mf1cb0b008f" y="215.83749"/>
     <use style="fill:#0000ff;stroke:#0000ff;" x="73.022727" xlink:href="#mf1cb0b008f" y="242.062079"/>
     <use style="fill:#0000ff;stroke:#0000ff;" x="112.698701" xlink:href="#mf1cb0b008f" y="242.053873"/>
     <use style="fill:#0000ff;stroke:#0000ff;" x="109.981169" xlink:href="#mf1cb0b008f" y="242.006392"/>
     <use style="fill:#0000ff;stroke:#0000ff;" x="80.088312" xlink:href="#mf1cb0b008f" y="238.344845"/>
     <use style="fill:#0000ff;stroke:#0000ff;" x="88.240909" xlink:href="#mf1cb0b008f" y="241.207342"/>
     <use style="fill:#0000ff;stroke:#0000ff;" x="205.094805" xlink:href="#mf1cb0b008f" y="213.958429"/>
     <use style="fill:#0000ff;stroke:#0000ff;" x="88.240909" xlink:href="#mf1cb0b008f" y="222.098807"/>
     <use style="fill:#0000ff;stroke:#0000ff;" x="96.929947" xlink:href="#mf1cb0b008f" y="236.747727"/>
     <use style="fill:#0000ff;stroke:#0000ff;" x="115.416234" xlink:href="#mf1cb0b008f" y="237.851164"/>
     <use style="fill:#0000ff;stroke:#0000ff;" x="109.981169" xlink:href="#mf1cb0b008f" y="184.655467"/>
     <use style="fill:#0000ff;stroke:#0000ff;" x="69.218182" xlink:href="#mf1cb0b008f" y="194.366031"/>
     <use style="fill:#0000ff;stroke:#0000ff;" x="131.721429" xlink:href="#mf1cb0b008f" y="238.442544"/>
     <use style="fill:#0000ff;stroke:#0000ff;" x="107.263636" xlink:href="#mf1cb0b008f" y="212.909207"/>
     <use style="fill:#0000ff;stroke:#0000ff;" x="161.614286" xlink:href="#mf1cb0b008f" y="241.980582"/>
     <use style="fill:#0000ff;stroke:#0000ff;" x="69.218182" xlink:href="#mf1cb0b008f" y="133.145329"/>
     <use style="fill:#0000ff;stroke:#0000ff;" x="82.805844" xlink:href="#mf1cb0b008f" y="241.945585"/>
     <use style="fill:#0000ff;stroke:#0000ff;" x="90.958442" xlink:href="#mf1cb0b008f" y="241.788903"/>
     <use style="fill:#0000ff;stroke:#0000ff;" x="123.568831" xlink:href="#mf1cb0b008f" y="242.030027"/>
     <use style="fill:#0000ff;stroke:#0000ff;" x="69.218182" xlink:href="#mf1cb0b008f" y="209.478475"/>
     <use style="fill:#0000ff;stroke:#0000ff;" x="237.705195" xlink:href="#mf1cb0b008f" y="235.528919"/>
     <use style="fill:#0000ff;stroke:#0000ff;" x="123.568831" xlink:href="#mf1cb0b008f" y="241.900137"/>
     <use style="fill:#0000ff;stroke:#0000ff;" x="80.088312" xlink:href="#mf1cb0b008f" y="241.931908"/>
     <use style="fill:#0000ff;stroke:#0000ff;" x="69.218182" xlink:href="#mf1cb0b008f" y="44.443636"/>
     <use style="fill:#0000ff;stroke:#0000ff;" x="118.133766" xlink:href="#mf1cb0b008f" y="238.498301"/>
     <use style="fill:#0000ff;stroke:#0000ff;" x="129.003896" xlink:href="#mf1cb0b008f" y="242.078491"/>
     <use style="fill:#0000ff;stroke:#0000ff;" x="210.52987" xlink:href="#mf1cb0b008f" y="221.261463"/>
     <use style="fill:#0000ff;stroke:#0000ff;" x="101.828571" xlink:href="#mf1cb0b008f" y="241.994328"/>
     <use style="fill:#0000ff;stroke:#0000ff;" x="86.882143" xlink:href="#mf1cb0b008f" y="242.017403"/>
     <use style="fill:#0000ff;stroke:#0000ff;" x="129.003896" xlink:href="#mf1cb0b008f" y="242.049946"/>
     <use style="fill:#0000ff;stroke:#0000ff;" x="90.958442" xlink:href="#mf1cb0b008f" y="242.093219"/>
     <use style="fill:#0000ff;stroke:#0000ff;" x="109.981169" xlink:href="#mf1cb0b008f" y="242.048192"/>
     <use style="fill:#0000ff;stroke:#0000ff;" x="69.218182" xlink:href="#mf1cb0b008f" y="242.10402"/>
     <use style="fill:#0000ff;stroke:#0000ff;" x="123.568831" xlink:href="#mf1cb0b008f" y="113.807101"/>
     <use style="fill:#0000ff;stroke:#0000ff;" x="85.523377" xlink:href="#mf1cb0b008f" y="242.116364"/>
     <use style="fill:#0000ff;stroke:#0000ff;" x="90.958442" xlink:href="#mf1cb0b008f" y="242.061798"/>
     <use style="fill:#0000ff;stroke:#0000ff;" x="74.653247" xlink:href="#mf1cb0b008f" y="227.945414"/>
     <use style="fill:#0000ff;stroke:#0000ff;" x="177.919481" xlink:href="#mf1cb0b008f" y="242.032833"/>
     <use style="fill:#0000ff;stroke:#0000ff;" x="104.546104" xlink:href="#mf1cb0b008f" y="242.066918"/>
     <use style="fill:#0000ff;stroke:#0000ff;" x="101.828571" xlink:href="#mf1cb0b008f" y="241.947969"/>
     <use style="fill:#0000ff;stroke:#0000ff;" x="150.744156" xlink:href="#mf1cb0b008f" y="112.212999"/>
     <use style="fill:#0000ff;stroke:#0000ff;" x="96.393506" xlink:href="#mf1cb0b008f" y="217.143266"/>
     <use style="fill:#0000ff;stroke:#0000ff;" x="74.653247" xlink:href="#mf1cb0b008f" y="242.105002"/>
     <use style="fill:#0000ff;stroke:#0000ff;" x="107.263636" xlink:href="#mf1cb0b008f" y="234.322804"/>
     <use style="fill:#0000ff;stroke:#0000ff;" x="101.828571" xlink:href="#mf1cb0b008f" y="242.116364"/>
     <use style="fill:#0000ff;stroke:#0000ff;" x="69.218182" xlink:href="#mf1cb0b008f" y="216.720702"/>
     <use style="fill:#0000ff;stroke:#0000ff;" x="69.218182" xlink:href="#mf1cb0b008f" y="212.19467"/>
     <use style="fill:#0000ff;stroke:#0000ff;" x="85.523377" xlink:href="#mf1cb0b008f" y="231.451962"/>
     <use style="fill:#0000ff;stroke:#0000ff;" x="112.087256" xlink:href="#mf1cb0b008f" y="242.116364"/>
     <use style="fill:#0000ff;stroke:#0000ff;" x="115.416234" xlink:href="#mf1cb0b008f" y="242.116223"/>
     <use style="fill:#0000ff;stroke:#0000ff;" x="86.882143" xlink:href="#mf1cb0b008f" y="242.016421"/>
     <use style="fill:#0000ff;stroke:#0000ff;" x="69.218182" xlink:href="#mf1cb0b008f" y="213.983046"/>
     <use style="fill:#0000ff;stroke:#0000ff;" x="232.27013" xlink:href="#mf1cb0b008f" y="221.003856"/>
     <use style="fill:#0000ff;stroke:#0000ff;" x="93.675974" xlink:href="#mf1cb0b008f" y="165.987241"/>
     <use style="fill:#0000ff;stroke:#0000ff;" x="69.218182" xlink:href="#mf1cb0b008f" y="228.819929"/>
    </g>
   </g>
   <g id="matplotlib.axis_1">
    <g id="xtick_1">
     <g id="line2d_1">
      <defs>
       <path d="M 0 0 
L 0 3.5 
" id="mc11e966e02" style="stroke:#000000;stroke-width:0.8;"/>
      </defs>
      <g>
       <use style="stroke:#000000;stroke-width:0.8;" x="69.218182" xlink:href="#mc11e966e02" y="252"/>
      </g>
     </g>
     <g id="text_1">
      <!-- 0 -->
      <g transform="translate(66.036932 266.598437)scale(0.1 -0.1)">
       <defs>
        <path d="M 2034 4250 
Q 1547 4250 1301 3770 
Q 1056 3291 1056 2328 
Q 1056 1369 1301 889 
Q 1547 409 2034 409 
Q 2525 409 2770 889 
Q 3016 1369 3016 2328 
Q 3016 3291 2770 3770 
Q 2525 4250 2034 4250 
z
M 2034 4750 
Q 2819 4750 3233 4129 
Q 3647 3509 3647 2328 
Q 3647 1150 3233 529 
Q 2819 -91 2034 -91 
Q 1250 -91 836 529 
Q 422 1150 422 2328 
Q 422 3509 836 4129 
Q 1250 4750 2034 4750 
z
" id="DejaVuSans-30" transform="scale(0.015625)"/>
       </defs>
       <use xlink:href="#DejaVuSans-30"/>
      </g>
     </g>
    </g>
    <g id="xtick_2">
     <g id="line2d_2">
      <g>
       <use style="stroke:#000000;stroke-width:0.8;" x="123.568831" xlink:href="#mc11e966e02" y="252"/>
      </g>
     </g>
     <g id="text_2">
      <!-- 1 -->
      <g transform="translate(120.387581 266.598437)scale(0.1 -0.1)">
       <defs>
        <path d="M 794 531 
L 1825 531 
L 1825 4091 
L 703 3866 
L 703 4441 
L 1819 4666 
L 2450 4666 
L 2450 531 
L 3481 531 
L 3481 0 
L 794 0 
L 794 531 
z
" id="DejaVuSans-31" transform="scale(0.015625)"/>
       </defs>
       <use xlink:href="#DejaVuSans-31"/>
      </g>
     </g>
    </g>
    <g id="xtick_3">
     <g id="line2d_3">
      <g>
       <use style="stroke:#000000;stroke-width:0.8;" x="177.919481" xlink:href="#mc11e966e02" y="252"/>
      </g>
     </g>
     <g id="text_3">
      <!-- 2 -->
      <g transform="translate(174.738231 266.598437)scale(0.1 -0.1)">
       <defs>
        <path d="M 1228 531 
L 3431 531 
L 3431 0 
L 469 0 
L 469 531 
Q 828 903 1448 1529 
Q 2069 2156 2228 2338 
Q 2531 2678 2651 2914 
Q 2772 3150 2772 3378 
Q 2772 3750 2511 3984 
Q 2250 4219 1831 4219 
Q 1534 4219 1204 4116 
Q 875 4013 500 3803 
L 500 4441 
Q 881 4594 1212 4672 
Q 1544 4750 1819 4750 
Q 2544 4750 2975 4387 
Q 3406 4025 3406 3419 
Q 3406 3131 3298 2873 
Q 3191 2616 2906 2266 
Q 2828 2175 2409 1742 
Q 1991 1309 1228 531 
z
" id="DejaVuSans-32" transform="scale(0.015625)"/>
       </defs>
       <use xlink:href="#DejaVuSans-32"/>
      </g>
     </g>
    </g>
    <g id="xtick_4">
     <g id="line2d_4">
      <g>
       <use style="stroke:#000000;stroke-width:0.8;" x="232.27013" xlink:href="#mc11e966e02" y="252"/>
      </g>
     </g>
     <g id="text_4">
      <!-- 3 -->
      <g transform="translate(229.08888 266.598437)scale(0.1 -0.1)">
       <defs>
        <path d="M 2597 2516 
Q 3050 2419 3304 2112 
Q 3559 1806 3559 1356 
Q 3559 666 3084 287 
Q 2609 -91 1734 -91 
Q 1441 -91 1130 -33 
Q 819 25 488 141 
L 488 750 
Q 750 597 1062 519 
Q 1375 441 1716 441 
Q 2309 441 2620 675 
Q 2931 909 2931 1356 
Q 2931 1769 2642 2001 
Q 2353 2234 1838 2234 
L 1294 2234 
L 1294 2753 
L 1863 2753 
Q 2328 2753 2575 2939 
Q 2822 3125 2822 3475 
Q 2822 3834 2567 4026 
Q 2313 4219 1838 4219 
Q 1578 4219 1281 4162 
Q 984 4106 628 3988 
L 628 4550 
Q 988 4650 1302 4700 
Q 1616 4750 1894 4750 
Q 2613 4750 3031 4423 
Q 3450 4097 3450 3541 
Q 3450 3153 3228 2886 
Q 3006 2619 2597 2516 
z
" id="DejaVuSans-33" transform="scale(0.015625)"/>
       </defs>
       <use xlink:href="#DejaVuSans-33"/>
      </g>
     </g>
    </g>
    <g id="xtick_5">
     <g id="line2d_5">
      <g>
       <use style="stroke:#000000;stroke-width:0.8;" x="286.620779" xlink:href="#mc11e966e02" y="252"/>
      </g>
     </g>
     <g id="text_5">
      <!-- 4 -->
      <g transform="translate(283.439529 266.598437)scale(0.1 -0.1)">
       <defs>
        <path d="M 2419 4116 
L 825 1625 
L 2419 1625 
L 2419 4116 
z
M 2253 4666 
L 3047 4666 
L 3047 1625 
L 3713 1625 
L 3713 1100 
L 3047 1100 
L 3047 0 
L 2419 0 
L 2419 1100 
L 313 1100 
L 313 1709 
L 2253 4666 
z
" id="DejaVuSans-34" transform="scale(0.015625)"/>
       </defs>
       <use xlink:href="#DejaVuSans-34"/>
      </g>
     </g>
    </g>
    <g id="xtick_6">
     <g id="line2d_6">
      <g>
       <use style="stroke:#000000;stroke-width:0.8;" x="340.971429" xlink:href="#mc11e966e02" y="252"/>
      </g>
     </g>
     <g id="text_6">
      <!-- 5 -->
      <g transform="translate(337.790179 266.598437)scale(0.1 -0.1)">
       <defs>
        <path d="M 691 4666 
L 3169 4666 
L 3169 4134 
L 1269 4134 
L 1269 2991 
Q 1406 3038 1543 3061 
Q 1681 3084 1819 3084 
Q 2600 3084 3056 2656 
Q 3513 2228 3513 1497 
Q 3513 744 3044 326 
Q 2575 -91 1722 -91 
Q 1428 -91 1123 -41 
Q 819 9 494 109 
L 494 744 
Q 775 591 1075 516 
Q 1375 441 1709 441 
Q 2250 441 2565 725 
Q 2881 1009 2881 1497 
Q 2881 1984 2565 2268 
Q 2250 2553 1709 2553 
Q 1456 2553 1204 2497 
Q 953 2441 691 2322 
L 691 4666 
z
" id="DejaVuSans-35" transform="scale(0.015625)"/>
       </defs>
       <use xlink:href="#DejaVuSans-35"/>
      </g>
     </g>
    </g>
    <g id="text_7">
     <!-- bonus -->
     <g transform="translate(206.224219 280.276563)scale(0.1 -0.1)">
      <defs>
       <path d="M 3116 1747 
Q 3116 2381 2855 2742 
Q 2594 3103 2138 3103 
Q 1681 3103 1420 2742 
Q 1159 2381 1159 1747 
Q 1159 1113 1420 752 
Q 1681 391 2138 391 
Q 2594 391 2855 752 
Q 3116 1113 3116 1747 
z
M 1159 2969 
Q 1341 3281 1617 3432 
Q 1894 3584 2278 3584 
Q 2916 3584 3314 3078 
Q 3713 2572 3713 1747 
Q 3713 922 3314 415 
Q 2916 -91 2278 -91 
Q 1894 -91 1617 61 
Q 1341 213 1159 525 
L 1159 0 
L 581 0 
L 581 4863 
L 1159 4863 
L 1159 2969 
z
" id="DejaVuSans-62" transform="scale(0.015625)"/>
       <path d="M 1959 3097 
Q 1497 3097 1228 2736 
Q 959 2375 959 1747 
Q 959 1119 1226 758 
Q 1494 397 1959 397 
Q 2419 397 2687 759 
Q 2956 1122 2956 1747 
Q 2956 2369 2687 2733 
Q 2419 3097 1959 3097 
z
M 1959 3584 
Q 2709 3584 3137 3096 
Q 3566 2609 3566 1747 
Q 3566 888 3137 398 
Q 2709 -91 1959 -91 
Q 1206 -91 779 398 
Q 353 888 353 1747 
Q 353 2609 779 3096 
Q 1206 3584 1959 3584 
z
" id="DejaVuSans-6f" transform="scale(0.015625)"/>
       <path d="M 3513 2113 
L 3513 0 
L 2938 0 
L 2938 2094 
Q 2938 2591 2744 2837 
Q 2550 3084 2163 3084 
Q 1697 3084 1428 2787 
Q 1159 2491 1159 1978 
L 1159 0 
L 581 0 
L 581 3500 
L 1159 3500 
L 1159 2956 
Q 1366 3272 1645 3428 
Q 1925 3584 2291 3584 
Q 2894 3584 3203 3211 
Q 3513 2838 3513 2113 
z
" id="DejaVuSans-6e" transform="scale(0.015625)"/>
       <path d="M 544 1381 
L 544 3500 
L 1119 3500 
L 1119 1403 
Q 1119 906 1312 657 
Q 1506 409 1894 409 
Q 2359 409 2629 706 
Q 2900 1003 2900 1516 
L 2900 3500 
L 3475 3500 
L 3475 0 
L 2900 0 
L 2900 538 
Q 2691 219 2414 64 
Q 2138 -91 1772 -91 
Q 1169 -91 856 284 
Q 544 659 544 1381 
z
M 1991 3584 
L 1991 3584 
z
" id="DejaVuSans-75" transform="scale(0.015625)"/>
       <path d="M 2834 3397 
L 2834 2853 
Q 2591 2978 2328 3040 
Q 2066 3103 1784 3103 
Q 1356 3103 1142 2972 
Q 928 2841 928 2578 
Q 928 2378 1081 2264 
Q 1234 2150 1697 2047 
L 1894 2003 
Q 2506 1872 2764 1633 
Q 3022 1394 3022 966 
Q 3022 478 2636 193 
Q 2250 -91 1575 -91 
Q 1294 -91 989 -36 
Q 684 19 347 128 
L 347 722 
Q 666 556 975 473 
Q 1284 391 1588 391 
Q 1994 391 2212 530 
Q 2431 669 2431 922 
Q 2431 1156 2273 1281 
Q 2116 1406 1581 1522 
L 1381 1569 
Q 847 1681 609 1914 
Q 372 2147 372 2553 
Q 372 3047 722 3315 
Q 1072 3584 1716 3584 
Q 2034 3584 2315 3537 
Q 2597 3491 2834 3397 
z
" id="DejaVuSans-73" transform="scale(0.015625)"/>
      </defs>
      <use xlink:href="#DejaVuSans-62"/>
      <use x="63.476562" xlink:href="#DejaVuSans-6f"/>
      <use x="124.658203" xlink:href="#DejaVuSans-6e"/>
      <use x="188.037109" xlink:href="#DejaVuSans-75"/>
      <use x="251.416016" xlink:href="#DejaVuSans-73"/>
     </g>
    </g>
    <g id="text_8">
     <!-- 1e6 -->
     <g transform="translate(369.921875 279.276563)scale(0.1 -0.1)">
      <defs>
       <path d="M 3597 1894 
L 3597 1613 
L 953 1613 
Q 991 1019 1311 708 
Q 1631 397 2203 397 
Q 2534 397 2845 478 
Q 3156 559 3463 722 
L 3463 178 
Q 3153 47 2828 -22 
Q 2503 -91 2169 -91 
Q 1331 -91 842 396 
Q 353 884 353 1716 
Q 353 2575 817 3079 
Q 1281 3584 2069 3584 
Q 2775 3584 3186 3129 
Q 3597 2675 3597 1894 
z
M 3022 2063 
Q 3016 2534 2758 2815 
Q 2500 3097 2075 3097 
Q 1594 3097 1305 2825 
Q 1016 2553 972 2059 
L 3022 2063 
z
" id="DejaVuSans-65" transform="scale(0.015625)"/>
       <path d="M 2113 2584 
Q 1688 2584 1439 2293 
Q 1191 2003 1191 1497 
Q 1191 994 1439 701 
Q 1688 409 2113 409 
Q 2538 409 2786 701 
Q 3034 994 3034 1497 
Q 3034 2003 2786 2293 
Q 2538 2584 2113 2584 
z
M 3366 4563 
L 3366 3988 
Q 3128 4100 2886 4159 
Q 2644 4219 2406 4219 
Q 1781 4219 1451 3797 
Q 1122 3375 1075 2522 
Q 1259 2794 1537 2939 
Q 1816 3084 2150 3084 
Q 2853 3084 3261 2657 
Q 3669 2231 3669 1497 
Q 3669 778 3244 343 
Q 2819 -91 2113 -91 
Q 1303 -91 875 529 
Q 447 1150 447 2328 
Q 447 3434 972 4092 
Q 1497 4750 2381 4750 
Q 2619 4750 2861 4703 
Q 3103 4656 3366 4563 
z
" id="DejaVuSans-36" transform="scale(0.015625)"/>
      </defs>
      <use xlink:href="#DejaVuSans-31"/>
      <use x="63.623047" xlink:href="#DejaVuSans-65"/>
      <use x="125.146484" xlink:href="#DejaVuSans-36"/>
     </g>
    </g>
   </g>
   <g id="matplotlib.axis_2">
    <g id="ytick_1">
     <g id="line2d_7">
      <defs>
       <path d="M 0 0 
L -3.5 0 
" id="m26bbd55c75" style="stroke:#000000;stroke-width:0.8;"/>
      </defs>
      <g>
       <use style="stroke:#000000;stroke-width:0.8;" x="54" xlink:href="#m26bbd55c75" y="242.116364"/>
      </g>
     </g>
     <g id="text_9">
      <!-- 0.0 -->
      <g transform="translate(31.096875 245.915582)scale(0.1 -0.1)">
       <defs>
        <path d="M 684 794 
L 1344 794 
L 1344 0 
L 684 0 
L 684 794 
z
" id="DejaVuSans-2e" transform="scale(0.015625)"/>
       </defs>
       <use xlink:href="#DejaVuSans-30"/>
       <use x="63.623047" xlink:href="#DejaVuSans-2e"/>
       <use x="95.410156" xlink:href="#DejaVuSans-30"/>
      </g>
     </g>
    </g>
    <g id="ytick_2">
     <g id="line2d_8">
      <g>
       <use style="stroke:#000000;stroke-width:0.8;" x="54" xlink:href="#m26bbd55c75" y="207.048783"/>
      </g>
     </g>
     <g id="text_10">
      <!-- 0.5 -->
      <g transform="translate(31.096875 210.848001)scale(0.1 -0.1)">
       <use xlink:href="#DejaVuSans-30"/>
       <use x="63.623047" xlink:href="#DejaVuSans-2e"/>
       <use x="95.410156" xlink:href="#DejaVuSans-35"/>
      </g>
     </g>
    </g>
    <g id="ytick_3">
     <g id="line2d_9">
      <g>
       <use style="stroke:#000000;stroke-width:0.8;" x="54" xlink:href="#m26bbd55c75" y="171.981202"/>
      </g>
     </g>
     <g id="text_11">
      <!-- 1.0 -->
      <g transform="translate(31.096875 175.780421)scale(0.1 -0.1)">
       <use xlink:href="#DejaVuSans-31"/>
       <use x="63.623047" xlink:href="#DejaVuSans-2e"/>
       <use x="95.410156" xlink:href="#DejaVuSans-30"/>
      </g>
     </g>
    </g>
    <g id="ytick_4">
     <g id="line2d_10">
      <g>
       <use style="stroke:#000000;stroke-width:0.8;" x="54" xlink:href="#m26bbd55c75" y="136.913621"/>
      </g>
     </g>
     <g id="text_12">
      <!-- 1.5 -->
      <g transform="translate(31.096875 140.71284)scale(0.1 -0.1)">
       <use xlink:href="#DejaVuSans-31"/>
       <use x="63.623047" xlink:href="#DejaVuSans-2e"/>
       <use x="95.410156" xlink:href="#DejaVuSans-35"/>
      </g>
     </g>
    </g>
    <g id="ytick_5">
     <g id="line2d_11">
      <g>
       <use style="stroke:#000000;stroke-width:0.8;" x="54" xlink:href="#m26bbd55c75" y="101.84604"/>
      </g>
     </g>
     <g id="text_13">
      <!-- 2.0 -->
      <g transform="translate(31.096875 105.645259)scale(0.1 -0.1)">
       <use xlink:href="#DejaVuSans-32"/>
       <use x="63.623047" xlink:href="#DejaVuSans-2e"/>
       <use x="95.410156" xlink:href="#DejaVuSans-30"/>
      </g>
     </g>
    </g>
    <g id="ytick_6">
     <g id="line2d_12">
      <g>
       <use style="stroke:#000000;stroke-width:0.8;" x="54" xlink:href="#m26bbd55c75" y="66.778459"/>
      </g>
     </g>
     <g id="text_14">
      <!-- 2.5 -->
      <g transform="translate(31.096875 70.577678)scale(0.1 -0.1)">
       <use xlink:href="#DejaVuSans-32"/>
       <use x="63.623047" xlink:href="#DejaVuSans-2e"/>
       <use x="95.410156" xlink:href="#DejaVuSans-35"/>
      </g>
     </g>
    </g>
    <g id="text_15">
     <!-- other -->
     <g transform="translate(25.017187 156.600313)rotate(-90)scale(0.1 -0.1)">
      <defs>
       <path d="M 1172 4494 
L 1172 3500 
L 2356 3500 
L 2356 3053 
L 1172 3053 
L 1172 1153 
Q 1172 725 1289 603 
Q 1406 481 1766 481 
L 2356 481 
L 2356 0 
L 1766 0 
Q 1100 0 847 248 
Q 594 497 594 1153 
L 594 3053 
L 172 3053 
L 172 3500 
L 594 3500 
L 594 4494 
L 1172 4494 
z
" id="DejaVuSans-74" transform="scale(0.015625)"/>
       <path d="M 3513 2113 
L 3513 0 
L 2938 0 
L 2938 2094 
Q 2938 2591 2744 2837 
Q 2550 3084 2163 3084 
Q 1697 3084 1428 2787 
Q 1159 2491 1159 1978 
L 1159 0 
L 581 0 
L 581 4863 
L 1159 4863 
L 1159 2956 
Q 1366 3272 1645 3428 
Q 1925 3584 2291 3584 
Q 2894 3584 3203 3211 
Q 3513 2838 3513 2113 
z
" id="DejaVuSans-68" transform="scale(0.015625)"/>
       <path d="M 2631 2963 
Q 2534 3019 2420 3045 
Q 2306 3072 2169 3072 
Q 1681 3072 1420 2755 
Q 1159 2438 1159 1844 
L 1159 0 
L 581 0 
L 581 3500 
L 1159 3500 
L 1159 2956 
Q 1341 3275 1631 3429 
Q 1922 3584 2338 3584 
Q 2397 3584 2469 3576 
Q 2541 3569 2628 3553 
L 2631 2963 
z
" id="DejaVuSans-72" transform="scale(0.015625)"/>
      </defs>
      <use xlink:href="#DejaVuSans-6f"/>
      <use x="61.181641" xlink:href="#DejaVuSans-74"/>
      <use x="100.390625" xlink:href="#DejaVuSans-68"/>
      <use x="163.769531" xlink:href="#DejaVuSans-65"/>
      <use x="225.292969" xlink:href="#DejaVuSans-72"/>
     </g>
    </g>
    <g id="text_16">
     <!-- 1e6 -->
     <g transform="translate(54 31.56)scale(0.1 -0.1)">
      <use xlink:href="#DejaVuSans-31"/>
      <use x="63.623047" xlink:href="#DejaVuSans-65"/>
      <use x="125.146484" xlink:href="#DejaVuSans-36"/>
     </g>
    </g>
   </g>
   <g id="patch_3">
    <path d="M 54 252 
L 54 34.56 
" style="fill:none;stroke:#000000;stroke-linecap:square;stroke-linejoin:miter;stroke-width:0.8;"/>
   </g>
   <g id="patch_4">
    <path d="M 388.8 252 
L 388.8 34.56 
" style="fill:none;stroke:#000000;stroke-linecap:square;stroke-linejoin:miter;stroke-width:0.8;"/>
   </g>
   <g id="patch_5">
    <path d="M 54 252 
L 388.8 252 
" style="fill:none;stroke:#000000;stroke-linecap:square;stroke-linejoin:miter;stroke-width:0.8;"/>
   </g>
   <g id="patch_6">
    <path d="M 54 34.56 
L 388.8 34.56 
" style="fill:none;stroke:#000000;stroke-linecap:square;stroke-linejoin:miter;stroke-width:0.8;"/>
   </g>
   <g id="legend_1">
    <g id="patch_7">
     <path d="M 315 71.91625 
L 381.8 71.91625 
Q 383.8 71.91625 383.8 69.91625 
L 383.8 41.56 
Q 383.8 39.56 381.8 39.56 
L 315 39.56 
Q 313 39.56 313 41.56 
L 313 69.91625 
Q 313 71.91625 315 71.91625 
z
" style="fill:#ffffff;opacity:0.8;stroke:#cccccc;stroke-linejoin:miter;"/>
    </g>
    <g id="PathCollection_3">
     <g>
      <use style="fill:#ff0000;stroke:#ff0000;" x="327" xlink:href="#mc9f396164a" y="48.533437"/>
     </g>
    </g>
    <g id="text_17">
     <!-- poi -->
     <g transform="translate(345 51.158437)scale(0.1 -0.1)">
      <defs>
       <path d="M 1159 525 
L 1159 -1331 
L 581 -1331 
L 581 3500 
L 1159 3500 
L 1159 2969 
Q 1341 3281 1617 3432 
Q 1894 3584 2278 3584 
Q 2916 3584 3314 3078 
Q 3713 2572 3713 1747 
Q 3713 922 3314 415 
Q 2916 -91 2278 -91 
Q 1894 -91 1617 61 
Q 1341 213 1159 525 
z
M 3116 1747 
Q 3116 2381 2855 2742 
Q 2594 3103 2138 3103 
Q 1681 3103 1420 2742 
Q 1159 2381 1159 1747 
Q 1159 1113 1420 752 
Q 1681 391 2138 391 
Q 2594 391 2855 752 
Q 3116 1113 3116 1747 
z
" id="DejaVuSans-70" transform="scale(0.015625)"/>
       <path d="M 603 3500 
L 1178 3500 
L 1178 0 
L 603 0 
L 603 3500 
z
M 603 4863 
L 1178 4863 
L 1178 4134 
L 603 4134 
L 603 4863 
z
" id="DejaVuSans-69" transform="scale(0.015625)"/>
      </defs>
      <use xlink:href="#DejaVuSans-70"/>
      <use x="63.476562" xlink:href="#DejaVuSans-6f"/>
      <use x="124.658203" xlink:href="#DejaVuSans-69"/>
     </g>
    </g>
    <g id="PathCollection_4">
     <g>
      <use style="fill:#0000ff;stroke:#0000ff;" x="327" xlink:href="#mf1cb0b008f" y="63.211562"/>
     </g>
    </g>
    <g id="text_18">
     <!-- not poi -->
     <g transform="translate(345 65.836562)scale(0.1 -0.1)">
      <defs>
       <path id="DejaVuSans-20" transform="scale(0.015625)"/>
      </defs>
      <use xlink:href="#DejaVuSans-6e"/>
      <use x="63.378906" xlink:href="#DejaVuSans-6f"/>
      <use x="124.560547" xlink:href="#DejaVuSans-74"/>
      <use x="163.769531" xlink:href="#DejaVuSans-20"/>
      <use x="195.556641" xlink:href="#DejaVuSans-70"/>
      <use x="259.033203" xlink:href="#DejaVuSans-6f"/>
      <use x="320.214844" xlink:href="#DejaVuSans-69"/>
     </g>
    </g>
   </g>
  </g>
 </g>
 <defs>
  <clipPath id="p1235a3229e">
   <rect height="217.44" width="334.8" x="54" y="34.56"/>
  </clipPath>
 </defs>
</svg>
